<svg width="600" height="600" viewBox="0 0 600 600" fill="none" xmlns="http://www.w3.org/2000/svg">
<rect width="600" height="600"/>
<path d="M200 375H400V225H200V375ZM208.333 366.667V335.058L254.167 289.225L295.833 330.892L366.667 260.058L391.667 285.058V366.667H208.333ZM391.667 233.333V273.275L366.667 248.275L295.833 319.108L254.167 277.442L208.333 323.275V233.333H391.667Z" fill="black"/>
<path d="M295.833 287.5C307.321 287.5 316.667 278.154 316.667 266.667C316.667 255.179 307.321 245.833 295.833 245.833C284.346 245.833 275 255.179 275 266.667C275 278.154 284.346 287.5 295.833 287.5ZM295.833 254.167C302.725 254.167 308.333 259.775 308.333 266.667C308.333 273.558 302.725 279.167 295.833 279.167C288.942 279.167 283.333 273.558 283.333 266.667C283.333 259.775 288.942 254.167 295.833 254.167Z" fill="black"/>
</svg>
