<svg width="200" height="200" viewBox="0 0 200 200" fill="none" xmlns="http://www.w3.org/2000/svg">
<rect width="200" height="200"/>
<path d="M100 106.25C120.625 106.25 137.5 89.375 137.5 68.75C137.5 48.125 120.625 31.25 100 31.25C79.375 31.25 62.5 48.125 62.5 68.75C62.5 89.375 79.375 106.25 100 106.25ZM100 37.5C117.188 37.5 131.25 51.5625 131.25 68.75C131.25 85.9375 117.188 100 100 100C82.8125 100 68.75 85.9375 68.75 68.75C68.75 51.5625 82.8125 37.5 100 37.5Z" fill="black"/>
<path d="M128.125 112.5H71.875C49.375 112.5 31.25 130.625 31.25 153.125V168.75H37.5V153.125C37.5 134.062 52.8125 118.75 71.875 118.75H128.125C147.187 118.75 162.5 134.062 162.5 153.125V168.75H168.75V153.125C168.75 130.625 150.625 112.5 128.125 112.5Z" fill="black"/>
</svg>
