<svg width="24" height="24" viewBox="0 0 24 24" fill="none" xmlns="http://www.w3.org/2000/svg">
<path d="M0.552885 11.3225C1.00247 11.0056 1.32359 10.9422 2.28698 10.4352C2.86502 10.1309 3.82842 10.3084 4.08532 11.069C4.34223 11.8296 4.06868 11.7028 5.24141 13.8578C7.10397 17.2804 9.8312 17.5339 11.3429 17.5339C12.8843 17.5339 16.9948 17.1536 18.8574 13.8578C20.7603 10.4906 18.6005 6.56889 17.9582 5.49141C17.316 4.41392 17.2646 3.52658 17.9582 3.14629C18.5363 2.82938 19.1785 2.38571 20.0135 2.00542C20.8484 1.62513 20.9769 2.76601 20.9769 3.08292C20.9769 3.39982 21.3622 3.71673 21.5549 4.1604C21.7476 4.60407 23.7386 7.32947 23.8028 10.1816C23.8671 13.0338 23.3533 13.5409 23.1606 14.2381C22.9679 14.9352 22.9037 15.3155 23.1606 15.6958C23.4175 16.0761 24.0597 17.9142 23.9955 18.1043C23.9313 18.2945 23.6102 18.8015 23.1606 19.2452C22.7725 19.6281 21.8118 19.2452 21.1696 19.055C20.701 18.9163 20.0777 18.6748 19.5639 19.055C19.0501 19.4353 17.9582 20.1959 16.5453 20.7663C15.1323 21.3368 13.9762 21.21 13.2055 21.2734C12.4348 21.3368 12.6274 21.3368 12.1778 21.5903C11.7283 21.8438 10.1868 24.0622 9.73725 23.9988C9.28766 23.9354 8.96654 23.8087 8.51695 23.6819C8.06737 23.5551 7.87469 22.6044 7.55356 21.4002C7.35074 20.6396 7.03974 20.5762 6.4617 20.2593C5.69099 19.8368 4.66337 19.2452 2.86503 17.5339C1.0667 15.8226 1.06669 14.0479 0.745558 13.224C0.508182 12.6149 0.167518 12.5901 0.0390648 12.2098C-0.089388 11.8296 0.1033 11.6394 0.552885 11.3225Z" fill="url(#paint0_linear)"/>
<path d="M13.9282 10.0712C13.9282 12.2015 12.2013 13.9284 10.071 13.9284C7.94077 13.9284 6.21387 12.2015 6.21387 10.0712C6.21387 7.94097 7.94077 6.21407 10.071 6.21407C12.2013 6.21407 13.9282 7.94097 13.9282 10.0712Z" fill="url(#paint1_linear)"/>
<path d="M16.0849 3.23002C16.0849 4.41348 15.1095 5.37287 13.9063 5.37287C12.7031 5.37287 11.7277 4.41348 11.7277 3.23002C11.7277 2.04655 12.7031 1.08716 13.9063 1.08716C15.1095 1.08716 16.0849 2.04655 16.0849 3.23002Z" fill="url(#paint2_linear)"/>
<defs>
<linearGradient id="paint0_linear" x1="12" y1="1.92871" x2="11.9612" y2="28.8157" gradientUnits="userSpaceOnUse">
<stop stop-color="#0047FF"/>
<stop offset="1" stop-color="#00A3FF"/>
</linearGradient>
<linearGradient id="paint1_linear" x1="13.9063" y1="1.08716" x2="13.9802" y2="13.9027" gradientUnits="userSpaceOnUse">
<stop stop-color="#00C2FF"/>
<stop offset="1" stop-color="#00FFC2"/>
</linearGradient>
<linearGradient id="paint2_linear" x1="13.9063" y1="1.08716" x2="13.9802" y2="13.9027" gradientUnits="userSpaceOnUse">
<stop stop-color="#00C2FF"/>
<stop offset="1" stop-color="#00FFC2"/>
</linearGradient>
</defs>
</svg>
